<svg width="21" height="13" viewBox="0 0 21 13" fill="none" xmlns="http://www.w3.org/2000/svg">
<path d="M0.945456 7.21212H17.5721L14.4587 10.6048C14.0895 11.0071 14.0895 11.6595 14.4587 12.0619C14.6433 12.263 14.8853 12.3636 15.1273 12.3636C15.3693 12.3636 15.6112 12.263 15.7958 12.0618L20.5231 6.91031C20.8923 6.50801 20.8923 5.85562 20.5231 5.45325L15.7958 0.301725C15.4266 -0.100575 14.828 -0.100575 14.4587 0.301725C14.0895 0.704024 14.0895 1.35641 14.4587 1.75878L17.5721 5.15151H0.945456C0.423312 5.15151 0 5.61281 0 6.18181C0 6.75081 0.423312 7.21212 0.945456 7.21212Z" fill="#28A745"/>
</svg>
