<svg width="10" height="6" viewBox="0 0 10 6" fill="none" xmlns="http://www.w3.org/2000/svg">
<path d="M9.89121 0.81376C9.67007 0.321199 9.14911 2.80142e-06 8.5714 2.80142e-06H6.42855L5 0C5 0 5.28895 8.01682e-06 4.5 8.01682e-06C3.71105 8.01682e-06 3.98988 2.80142e-06 3.98988 2.80142e-06H3.57141H1.42855C0.850745 2.80142e-06 0.329793 0.321199 0.108746 0.81376C-0.112302 1.30632 0.00988844 1.87331 0.418459 2.25031L3.98988 5.54577C4.26874 5.80316 4.63436 5.93182 4.99998 5.93182C5.3656 5.93182 5.73121 5.80316 6.01017 5.54568L9.58159 2.25023C9.99007 1.87323 10.1124 1.30632 9.89121 0.81376Z" fill="#006E00"/>
</svg>
