<svg width="22" height="21" viewBox="0 0 22 21" fill="none" xmlns="http://www.w3.org/2000/svg">
<path d="M10.4743 10.1724H3.2369M3.03176 11.1211L1.83604 14.6929C1.18115 16.6491 0.853704 17.6272 1.08869 18.2295C1.29275 18.7527 1.73104 19.1492 2.27186 19.3002C2.89463 19.474 3.83525 19.0507 5.71649 18.2042L17.777 12.7769C19.6132 11.9506 20.5314 11.5375 20.8151 10.9635C21.0616 10.4649 21.0616 9.87974 20.8151 9.38111C20.5314 8.80726 19.6132 8.39408 17.777 7.56776L5.69568 2.13121C3.82011 1.28721 2.88233 0.865202 2.26018 1.03832C1.71987 1.18866 1.28164 1.58417 1.07686 2.10629C0.841066 2.70749 1.16501 3.68349 1.81291 5.63549L3.03408 9.3147C3.14535 9.64994 3.20099 9.81762 3.22295 9.98899C3.24244 10.1412 3.24224 10.2952 3.22237 10.4473C3.19996 10.6186 3.14389 10.7861 3.03176 11.1211Z" stroke="#C5C6C7" stroke-width="1.5" stroke-linecap="round" stroke-linejoin="round"/>
</svg>
