<svg width="20" height="20" viewBox="0 0 20 20" fill="none" xmlns="http://www.w3.org/2000/svg">
<g clip-path="url(#clip0_96_822)">
<path fill-rule="evenodd" clip-rule="evenodd" d="M19.1666 3.33334C19.1666 1.95263 18.0473 0.833336 16.6666 0.833336H3.33325C1.95254 0.833336 0.833252 1.95263 0.833252 3.33334V16.6667C0.833252 18.0474 1.95254 19.1667 3.33325 19.1667H16.6666C18.0473 19.1667 19.1666 18.0474 19.1666 16.6667V3.33334ZM17.4999 3.33334C17.4999 2.8731 17.1268 2.5 16.6666 2.5H3.33325C2.87302 2.5 2.49992 2.8731 2.49992 3.33334V16.6667C2.49992 17.1269 2.87302 17.5 3.33325 17.5H16.6666C17.1268 17.5 17.4999 17.1269 17.4999 16.6667V3.33334Z" fill="#C5C6C7"/>
<path d="M4.00552 14.6009L7.60173 8.0079C7.91758 7.42885 8.74906 7.42885 9.0649 8.0079L11.7054 12.8488L12.6098 11.2662C12.9297 10.7063 13.7369 10.7063 14.0568 11.2662L15.9542 14.5866C16.2716 15.1421 15.8705 15.8333 15.2306 15.8333H4.7371C4.10455 15.8333 3.70262 15.1563 4.00552 14.6009Z" fill="#C5C6C7"/>
<path d="M15.0001 6.66667C15.0001 7.58714 14.2539 8.33333 13.3334 8.33333C12.4129 8.33333 11.6667 7.58714 11.6667 6.66667C11.6667 5.74619 12.4129 5 13.3334 5C14.2539 5 15.0001 5.74619 15.0001 6.66667Z" fill="#C5C6C7"/>
</g>
<defs>
<clipPath id="clip0_96_822">
<rect width="20" height="20" fill="white"/>
</clipPath>
</defs>
</svg>
