<svg width="12" height="12" viewBox="0 0 12 12" fill="none" xmlns="http://www.w3.org/2000/svg">
<g clip-path="url(#clip0_89_746)">
<path d="M5.01516 4.48483C4.86872 4.33839 4.63128 4.33839 4.48483 4.48483C4.33839 4.63128 4.33839 4.86872 4.48483 5.01515L5.46966 6L4.48484 6.98485C4.3384 7.1313 4.3384 7.3687 4.48484 7.51515C4.63129 7.6616 4.86873 7.6616 5.01516 7.51515L6.00001 6.53035L6.98481 7.51515C7.13126 7.6616 7.36871 7.6616 7.51516 7.51515C7.66161 7.3687 7.66161 7.13125 7.51516 6.98485L6.53031 6L7.51516 5.01515C7.66161 4.86873 7.66161 4.63129 7.51516 4.48484C7.36871 4.3384 7.13126 4.3384 6.98481 4.48484L6.00001 5.4697L5.01516 4.48483Z" fill="#C5C6C7"/>
<path fill-rule="evenodd" clip-rule="evenodd" d="M6.0287 0.625H5.9713C4.81712 0.624995 3.9126 0.62499 3.20686 0.719875C2.48449 0.816995 1.91448 1.01967 1.46707 1.46707C1.01967 1.91448 0.816995 2.48449 0.719875 3.20686C0.62499 3.9126 0.624995 4.81711 0.625 5.9713V6.0287C0.624995 7.1829 0.62499 8.0874 0.719875 8.79315C0.816995 9.5155 1.01967 10.0856 1.46707 10.533C1.91448 10.9804 2.48449 11.183 3.20686 11.2802C3.9126 11.375 4.81711 11.375 5.9713 11.375H6.0287C7.1829 11.375 8.0874 11.375 8.79315 11.2802C9.5155 11.183 10.0856 10.9804 10.533 10.533C10.9804 10.0856 11.183 9.5155 11.2802 8.79315C11.375 8.0874 11.375 7.1829 11.375 6.0287V5.9713C11.375 4.81711 11.375 3.9126 11.2802 3.20686C11.183 2.48449 10.9804 1.91448 10.533 1.46707C10.0856 1.01967 9.5155 0.816995 8.79315 0.719875C8.0874 0.62499 7.1829 0.624995 6.0287 0.625ZM1.9974 1.9974C2.28223 1.71257 2.66759 1.54913 3.30679 1.46319C3.95678 1.3758 4.81088 1.375 6 1.375C7.1891 1.375 8.0432 1.3758 8.6932 1.46319C9.3324 1.54913 9.71775 1.71257 10.0026 1.9974C10.2874 2.28223 10.4509 2.66759 10.5368 3.30679C10.6242 3.95678 10.625 4.81088 10.625 6C10.625 7.1891 10.6242 8.0432 10.5368 8.6932C10.4509 9.3324 10.2874 9.71775 10.0026 10.0026C9.71775 10.2874 9.3324 10.4509 8.6932 10.5368C8.0432 10.6242 7.1891 10.625 6 10.625C4.81088 10.625 3.95678 10.6242 3.30679 10.5368C2.66759 10.4509 2.28223 10.2874 1.9974 10.0026C1.71257 9.71775 1.54913 9.3324 1.46319 8.6932C1.3758 8.0432 1.375 7.1891 1.375 6C1.375 4.81088 1.3758 3.95678 1.46319 3.30679C1.54913 2.66759 1.71257 2.28223 1.9974 1.9974Z" fill="#C5C6C7"/>
</g>
<defs>
<clipPath id="clip0_89_746">
<rect width="12" height="12" fill="white"/>
</clipPath>
</defs>
</svg>
