<svg width="20" height="20" viewBox="0 0 20 20" fill="none" xmlns="http://www.w3.org/2000/svg">
<path d="M19.4927 7.74548L19.4926 7.74528C19.4778 7.70111 19.4393 7.66838 19.3925 7.66109C19.3924 7.66108 19.3924 7.66107 19.3923 7.66106L13.2447 6.72176L12.9809 6.68147L12.8676 6.43997L10.113 0.572088C10.113 0.572007 10.1129 0.571926 10.1129 0.571845C10.0921 0.527961 10.0479 0.5 9.99957 0.5C9.95163 0.5 9.90723 0.527633 9.88603 0.572305C9.88598 0.572408 9.88593 0.572511 9.88588 0.572615L7.13155 6.43997L7.01819 6.68146L6.75449 6.72176L0.606361 7.66145L0.606195 7.66147C0.560666 7.66842 0.521654 7.70057 0.50632 7.74619L19.4927 7.74548ZM19.4927 7.74548C19.5072 7.78886 19.4966 7.83787 19.463 7.87236L19.4629 7.87247L14.996 12.4528L14.8198 12.6334L14.8605 12.8824L15.9161 19.3524L15.9162 19.3528C15.9239 19.4002 15.9038 19.4473 15.8655 19.4742L15.8636 19.4754C15.843 19.4901 15.8182 19.4978 15.793 19.4978C15.7734 19.4978 15.7521 19.4928 15.7317 19.4817C15.7316 19.4816 15.7315 19.4816 15.7314 19.4815L10.2413 16.445L9.99926 16.3111M19.4927 7.74548L9.99926 16.3111M3.58894 19.2719L4.64457 12.8019L0.177693 8.22156L3.58894 19.2719ZM3.58894 19.2719C3.55019 19.5081 3.64988 19.7459 3.84582 19.8834L3.58894 19.2719ZM9.99926 16.3111L9.75726 16.445M9.99926 16.3111L9.75726 16.445M9.75726 16.445L4.26715 19.4815C4.26706 19.4816 4.26697 19.4816 4.26689 19.4817L9.75726 16.445Z" stroke="#FF9500"/>
</svg>
