<svg width="50" height="23" viewBox="0 0 50 23" fill="none" xmlns="http://www.w3.org/2000/svg">
<g clip-path="url(#clip0_259_927)">
<path d="M23.6481 12.7738V18.5921H21.8008V4.22021H26.6975C27.8788 4.19508 29.0202 4.64328 29.8685 5.46429C30.7272 6.23713 31.211 7.34299 31.1921 8.49701C31.2173 9.65941 30.7335 10.7736 29.8685 11.5486C29.0119 12.3654 27.9542 12.7738 26.6975 12.7717L23.6481 12.7738ZM23.6481 5.98999V11.0082H26.7436C27.4306 11.0292 28.0924 10.759 28.5699 10.2647C29.5396 9.32221 29.5627 7.77025 28.6181 6.80053C28.6014 6.78378 28.5867 6.76702 28.5699 6.75236C28.0987 6.24761 27.4327 5.97114 26.7436 5.98999H23.6481ZM35.448 8.43837C36.8136 8.43837 37.8901 8.80279 38.6797 9.53165C39.4693 10.2605 39.863 11.2616 39.863 12.5309V18.5921H38.0974V17.2265H38.0178C37.2534 18.3512 36.2355 18.9125 34.9663 18.9125C33.8835 18.9125 32.9766 18.5921 32.2477 17.9491C31.5398 17.3522 31.1377 16.4684 31.1544 15.5405C31.1544 14.5226 31.5398 13.7142 32.3085 13.1131C33.0771 12.512 34.1034 12.2104 35.3894 12.2104C36.4847 12.2104 37.3895 12.4115 38.0974 12.8115V12.3884C38.1016 11.7559 37.821 11.1569 37.3351 10.7548C36.8471 10.315 36.2104 10.0741 35.5527 10.0825C34.5223 10.0825 33.7054 10.5181 33.1043 11.3873L31.4791 10.3631C32.3713 9.07926 33.695 8.43837 35.448 8.43837ZM33.0583 15.5824C33.0562 16.0599 33.2845 16.5082 33.6698 16.7867C34.0782 17.1072 34.5851 17.2789 35.1045 17.2684C35.8836 17.2663 36.6313 16.9564 37.1822 16.4055C37.7937 15.8296 38.0995 15.1552 38.0995 14.3781C37.5236 13.9195 36.7214 13.6891 35.6909 13.6891C34.9411 13.6891 34.3149 13.8692 33.8144 14.2315C33.3096 14.6001 33.0583 15.0462 33.0583 15.5824ZM50 8.75881L43.8361 22.9275H41.9302L44.2173 17.9701L40.1625 8.75881H42.169L45.0991 15.8233H45.1389L47.9894 8.75881H50Z" fill="white"/>
<path d="M16.1858 11.5172C16.1858 10.9538 16.1397 10.3925 16.0434 9.83743H8.25635V13.0168H12.7154C12.5311 14.043 11.9362 14.9499 11.0671 15.5259V17.591H13.7291C15.2873 16.1563 16.1858 14.0305 16.1858 11.5172Z" fill="#4285F4"/>
<path d="M8.25642 19.5869C10.4849 19.5869 12.3615 18.856 13.7291 17.5931L11.0671 15.528C10.3257 16.0306 9.37274 16.3176 8.25642 16.3176C6.10336 16.3176 4.27493 14.8661 3.62147 12.9099H0.879883V15.0379C2.28105 17.8276 5.13574 19.5869 8.25642 19.5869Z" fill="#34A853"/>
<path d="M3.62125 12.9099C3.27567 11.8858 3.27567 10.7736 3.62125 9.74946V7.62154H0.879655C-0.293218 9.95472 -0.293218 12.7047 0.879655 15.0379L3.62125 12.9099Z" fill="#FBBC04"/>
<path d="M8.25642 6.34185C9.43348 6.323 10.5707 6.76701 11.4232 7.57965L13.7815 5.22343C12.2861 3.82017 10.3069 3.04942 8.25642 3.07246C5.13574 3.07246 2.28105 4.83387 0.879883 7.62153L3.62147 9.74946C4.27493 7.79328 6.10336 6.34185 8.25642 6.34185Z" fill="#EA4335"/>
</g>
<defs>
<clipPath id="clip0_259_927">
<rect width="50" height="23" fill="white"/>
</clipPath>
</defs>
</svg>
