<svg width="15" height="15" viewBox="0 0 15 15" fill="none" xmlns="http://www.w3.org/2000/svg">
<g clip-path="url(#clip0_89_729)">
<path fill-rule="evenodd" clip-rule="evenodd" d="M14.375 2.5C14.375 1.46447 13.5356 0.625 12.5 0.625H2.5C1.46447 0.625 0.625 1.46447 0.625 2.5V12.5C0.625 13.5356 1.46447 14.375 2.5 14.375H12.5C13.5356 14.375 14.375 13.5356 14.375 12.5V2.5ZM13.125 2.5C13.125 2.15482 12.8452 1.875 12.5 1.875H2.5C2.15482 1.875 1.875 2.15482 1.875 2.5V12.5C1.875 12.8452 2.15482 13.125 2.5 13.125H12.5C12.8452 13.125 13.125 12.8452 13.125 12.5V2.5Z" fill="#C5C6C7"/>
<path d="M3.0042 10.9507L5.70136 6.00589C5.93824 5.5716 6.56186 5.5716 6.79873 6.00589L8.77911 9.6366L9.45742 8.4496C9.69736 8.02972 10.3027 8.02972 10.5427 8.4496L11.9657 10.9399C12.2038 11.3565 11.9029 11.875 11.423 11.875H3.55288C3.07847 11.875 2.77703 11.3672 3.0042 10.9507Z" fill="#C5C6C7"/>
<path d="M11.25 5C11.25 5.69036 10.6904 6.25 10 6.25C9.30963 6.25 8.75 5.69036 8.75 5C8.75 4.30964 9.30963 3.75 10 3.75C10.6904 3.75 11.25 4.30964 11.25 5Z" fill="#C5C6C7"/>
</g>
<defs>
<clipPath id="clip0_89_729">
<rect width="15" height="15" fill="white"/>
</clipPath>
</defs>
</svg>
