<svg width="22" height="28" viewBox="0 0 22 28" fill="none" xmlns="http://www.w3.org/2000/svg">
<path d="M7.61407 22.6705C6.7954 22.6705 4.2448 22.6705 2.35509 22.6705C1.34824 22.6705 0.694615 21.611 1.14489 20.7104L2.30169 18.3968C2.67782 17.6446 2.87364 16.816 2.87364 15.9749C2.87364 14.9324 2.87364 13.3839 2.87364 11.8353C2.87364 9.12645 4.22805 3.70882 11.0001 3.70882C17.7721 3.70882 19.1265 9.12645 19.1265 11.8353C19.1265 13.3839 19.1265 14.9324 19.1265 15.9749C19.1265 16.816 19.3224 17.6446 19.6985 18.3968L20.8553 20.7104C21.3055 21.611 20.6506 22.6705 19.6439 22.6705H14.3861M7.61407 22.6705C7.61407 25.3793 8.96848 26.7338 11.0001 26.7338C13.0317 26.7338 14.3861 25.3793 14.3861 22.6705M7.61407 22.6705C9.72979 22.6705 14.3861 22.6705 14.3861 22.6705" stroke="white" stroke-linejoin="round"/>
<path d="M11.0001 3.70882V1" stroke="white" stroke-linecap="round" stroke-linejoin="round"/>
</svg>
