<svg width="25" height="25" viewBox="0 0 25 25" fill="none" xmlns="http://www.w3.org/2000/svg">
<path d="M12.8394 24.3393C19.1906 24.3393 24.3394 19.1905 24.3394 12.8393C24.3394 6.48802 19.1906 1.33929 12.8394 1.33929C6.48808 1.33929 1.33936 6.48802 1.33936 12.8393C1.33936 19.1905 6.48808 24.3393 12.8394 24.3393Z" stroke="white" stroke-linecap="round" stroke-linejoin="round"/>
<path d="M20.5902 21.3264C18.5432 23.2009 15.8292 24.3394 12.8392 24.3394C9.84914 24.3394 7.13513 23.2009 5.08813 21.3264C5.20313 20.2454 5.89313 19.1874 7.12363 18.3594C10.2746 16.2664 15.4267 16.2664 18.5547 18.3594C19.7852 19.1874 20.4752 20.2454 20.5902 21.3264Z" stroke="white" stroke-linecap="round" stroke-linejoin="round"/>
<path d="M12.9781 13.7363C12.8976 13.7248 12.7941 13.7248 12.7021 13.7363C10.6781 13.6673 9.06812 12.0113 9.06812 9.97574C9.06812 7.89424 10.7471 6.20374 12.8401 6.20374C14.9216 6.20374 16.6121 7.89424 16.6121 9.97574C16.6006 12.0113 15.0021 13.6673 12.9781 13.7363Z" stroke="white" stroke-linecap="round" stroke-linejoin="round"/>
</svg>
