<svg width="20" height="18" viewBox="0 0 20 18" fill="none" xmlns="http://www.w3.org/2000/svg">
<path d="M0.183155 5.37033L4.97482 0.197598L5.04583 0.1314L5.09391 0.0968419L5.1542 0.0622028L5.24149 0.0269242L5.32901 0.00663257L5.37253 0.00166554L5.41667 0L5.46426 0.00192819L5.54091 0.0133977L5.62964 0.0402288L5.70103 0.0737105L5.74596 0.101175L5.79859 0.140645L5.85851 0.197598L10.6502 5.37033C10.8943 5.63387 10.8944 6.06126 10.6504 6.32492C10.4285 6.56461 10.0813 6.58648 9.8366 6.39047L9.76649 6.32513L6.04134 2.3036L6.04167 17.325C6.04167 17.6978 5.76184 18 5.41667 18C5.10025 18 4.83876 17.7461 4.79737 17.4166L4.79167 17.325L4.79134 2.3036L1.06684 6.32513C0.844907 6.56472 0.497683 6.58642 0.253047 6.39029L0.182961 6.32492C-0.0388789 6.08523 -0.0589743 5.71023 0.122625 5.44602L0.183155 5.37033ZM14.5833 0C14.8997 0 15.1612 0.253939 15.2026 0.583407L15.2083 0.675V15.6933L18.9332 11.6726L19.0033 11.6073C19.248 11.4112 19.5952 11.4331 19.817 11.6728C20.0389 11.9125 20.059 12.2875 19.8774 12.5517L19.8168 12.6274L15.0437 17.7815C14.9295 17.9158 14.7655 18 14.5833 18C14.4315 18 14.2923 17.9415 14.1841 17.8443L14.1229 17.7815L9.34982 12.6274L9.28929 12.5517C9.12787 12.3169 9.12581 11.9945 9.28315 11.7574L9.34963 11.6728L9.41971 11.6074C9.63717 11.4331 9.93568 11.4309 10.1552 11.6008L10.2335 11.6726L13.9583 15.6951V0.675L13.964 0.583407C14.0054 0.253939 14.2669 0 14.5833 0Z" fill="white"/>
</svg>
