<svg width="24" height="21" viewBox="0 0 24 21" fill="none" xmlns="http://www.w3.org/2000/svg">
<path d="M16.915 11.4022C16.915 11.6273 17.0031 11.8431 17.16 12.0023C17.3168 12.1614 17.5295 12.2508 17.7512 12.2508C17.973 12.2508 18.1857 12.1614 18.3425 12.0023C18.4993 11.8431 18.5874 11.6273 18.5874 11.4022C18.5874 11.1772 18.4993 10.9614 18.3425 10.8022C18.1857 10.6431 17.973 10.5537 17.7512 10.5537C17.5295 10.5537 17.3168 10.6431 17.16 10.8022C17.0031 10.9614 16.915 11.1772 16.915 11.4022Z" fill="#2F2F33"/>
<path d="M21.8832 9.50452H17.5634C16.4865 9.50452 15.6133 10.3901 15.6133 11.4824C15.6133 12.5747 16.4865 13.4602 17.5634 13.4602H21.8832C22.1146 13.4602 22.3028 13.2689 22.3028 13.0375V9.92724C22.2998 9.69274 22.1146 9.50452 21.8832 9.50452Z" fill="white"/>
<path d="M9.85254 4.42253L17.727 1.96948L18.4737 4.64778L9.85254 4.42253Z" fill="#3A3A3B"/>
<path d="M20.2446 5.16316L18.7296 5.57354L17.7854 1.99117L4.48955 6.03947L3.96191 4.51827L18.0692 0.287923C18.5136 0.155243 18.9764 0.411346 19.1091 0.861843C19.1122 0.868014 19.1122 0.877271 19.1153 0.883442L20.2446 5.16316ZM23.1296 7.79106C23.5924 7.79106 23.9658 8.17059 23.9658 8.6396V14.2924C23.9658 14.7614 23.5924 15.1409 23.1296 15.1409H17.5539C15.5514 15.1409 13.9284 13.4963 13.9284 11.466C13.9284 9.43568 15.5514 7.79106 17.5539 7.79106H23.1296ZM21.8738 9.48814H17.5539C16.4771 9.48814 15.6039 10.3737 15.6039 11.466C15.6039 12.5583 16.4771 13.4439 17.5539 13.4439H21.8738C22.1052 13.4439 22.2934 13.2526 22.2934 13.0211V9.91086C22.2934 9.67636 22.1052 9.48814 21.8738 9.48814Z" fill="#2F2F33"/>
<path d="M22.2934 9.48917H20.7136V13.448H22.2934V19.9493C22.2934 20.4183 21.9201 20.7979 21.4572 20.7979H1.80202C1.33918 20.7979 0.96582 20.4183 0.96582 19.9493V5.24649C0.96582 4.77748 1.33918 4.39795 1.80202 4.39795H21.4572C21.9201 4.39795 22.2934 4.77748 22.2934 5.24649V9.48917ZM2.63821 6.09502V19.1008H20.7136V6.09502H2.63821Z" fill="#2F2F33"/>
<path d="M1.80225 5.38843H22.1672V9.37501L22.6547 11.7231L22.1672 13.6887V19.3816H1.80225V5.38843Z" fill="#2F2F33"/>
<path d="M1.80225 5.38843H22.1672V9.37501L22.6547 11.7231L22.1672 13.6887V19.3816H1.80225V5.38843Z" fill="#006E00"/>
<path d="M22.2934 9.48917H20.7136V13.448H22.2934V19.9493C22.2934 20.4183 21.9201 20.7979 21.4572 20.7979H1.80202C1.33918 20.7979 0.96582 20.4183 0.96582 19.9493V5.24649C0.96582 4.77748 1.33918 4.39795 1.80202 4.39795H21.4572C21.9201 4.39795 22.2934 4.77748 22.2934 5.24649V9.48917ZM2.63821 6.09502V19.1008H20.7136V6.09502H2.63821Z" fill="#2F2F33"/>
<path d="M22.2934 9.48917H20.7136V13.448H22.2934V19.9493C22.2934 20.4183 21.9201 20.7979 21.4572 20.7979H1.80202C1.33918 20.7979 0.96582 20.4183 0.96582 19.9493V5.24649C0.96582 4.77748 1.33918 4.39795 1.80202 4.39795H21.4572C21.9201 4.39795 22.2934 4.77748 22.2934 5.24649V9.48917ZM2.63821 6.09502V19.1008H20.7136V6.09502H2.63821Z" fill="#2F2F33"/>
<path d="M20.2446 5.16316L18.7296 5.57354L17.7854 1.99117L4.48955 6.03947L3.96191 4.51827L18.0692 0.287923C18.5136 0.155243 18.9764 0.411346 19.1091 0.861843C19.1122 0.868014 19.1122 0.877271 19.1153 0.883442L20.2446 5.16316ZM23.1296 7.79106C23.5924 7.79106 23.9658 8.17059 23.9658 8.6396V14.2924C23.9658 14.7614 23.5924 15.1409 23.1296 15.1409H17.5539C15.5514 15.1409 13.9284 13.4963 13.9284 11.466C13.9284 9.43568 15.5514 7.79106 17.5539 7.79106H23.1296ZM21.8738 9.48814H17.5539C16.4771 9.48814 15.6039 10.3737 15.6039 11.466C15.6039 12.5583 16.4771 13.4439 17.5539 13.4439H21.8738C22.1052 13.4439 22.2934 13.2526 22.2934 13.0211V9.91086C22.2934 9.67636 22.1052 9.48814 21.8738 9.48814Z" fill="#2F2F33"/>
<path d="M22.2934 9.48917H20.7136V13.448H22.2934V19.9493C22.2934 20.4183 21.9201 20.7979 21.4572 20.7979H1.80202C1.33918 20.7979 0.96582 20.4183 0.96582 19.9493V5.24649C0.96582 4.77748 1.33918 4.39795 1.80202 4.39795H21.4572C21.9201 4.39795 22.2934 4.77748 22.2934 5.24649V9.48917ZM2.63821 6.09502V19.1008H20.7136V6.09502H2.63821Z" fill="#2F2F33"/>
<path d="M20.2446 5.16316L18.7296 5.57354L17.7854 1.99117L4.48955 6.03947L3.96191 4.51827L18.0692 0.287923C18.5136 0.155243 18.9764 0.411346 19.1091 0.861843C19.1122 0.868014 19.1122 0.877271 19.1153 0.883442L20.2446 5.16316ZM23.1296 7.79106C23.5924 7.79106 23.9658 8.17059 23.9658 8.6396V14.2924C23.9658 14.7614 23.5924 15.1409 23.1296 15.1409H17.5539C15.5514 15.1409 13.9284 13.4963 13.9284 11.466C13.9284 9.43568 15.5514 7.79106 17.5539 7.79106H23.1296ZM21.8738 9.48814H17.5539C16.4771 9.48814 15.6039 10.3737 15.6039 11.466C15.6039 12.5583 16.4771 13.4439 17.5539 13.4439H21.8738C22.1052 13.4439 22.2934 13.2526 22.2934 13.0211V9.91086C22.2934 9.67636 22.1052 9.48814 21.8738 9.48814Z" fill="#2F2F33"/>
<path d="M20.2446 5.16316L18.7296 5.57354L17.7854 1.99117L4.48955 6.03947L3.96191 4.51827L18.0692 0.287923C18.5136 0.155243 18.9764 0.411346 19.1091 0.861843C19.1122 0.868014 19.1122 0.877271 19.1153 0.883442L20.2446 5.16316ZM23.1296 7.79106C23.5924 7.79106 23.9658 8.17059 23.9658 8.6396V14.2924C23.9658 14.7614 23.5924 15.1409 23.1296 15.1409H17.5539C15.5514 15.1409 13.9284 13.4963 13.9284 11.466C13.9284 9.43568 15.5514 7.79106 17.5539 7.79106H23.1296ZM21.8738 9.48814H17.5539C16.4771 9.48814 15.6039 10.3737 15.6039 11.466C15.6039 12.5583 16.4771 13.4439 17.5539 13.4439H21.8738C22.1052 13.4439 22.2934 13.2526 22.2934 13.0211V9.91086C22.2934 9.67636 22.1052 9.48814 21.8738 9.48814Z" fill="#2F2F33"/>
<line x1="5" y1="11.5" x2="12" y2="11.5" stroke="#C5C6C7"/>
<line x1="8.5" y1="8" x2="8.5" y2="15" stroke="#C5C6C7"/>
<path d="M22.2934 9.48917H20.7136V13.448H22.2934V19.9493C22.2934 20.4183 21.9201 20.7979 21.4572 20.7979H1.80202C1.33918 20.7979 0.96582 20.4183 0.96582 19.9493V5.24649C0.96582 4.77748 1.33918 4.39795 1.80202 4.39795H21.4572C21.9201 4.39795 22.2934 4.77748 22.2934 5.24649V9.48917ZM2.63821 6.09502V19.1008H20.7136V6.09502H2.63821Z" fill="#3A3A3B"/>
<path d="M20.2446 5.16316L18.7296 5.57354L17.7854 1.99117L4.48955 6.03947L3.96191 4.51827L18.0692 0.287923C18.5136 0.155243 18.9764 0.411346 19.1091 0.861843C19.1122 0.868014 19.1122 0.877271 19.1153 0.883442L20.2446 5.16316ZM23.1296 7.79106C23.5924 7.79106 23.9658 8.17059 23.9658 8.6396V14.2924C23.9658 14.7614 23.5924 15.1409 23.1296 15.1409H17.5539C15.5514 15.1409 13.9284 13.4963 13.9284 11.466C13.9284 9.43568 15.5514 7.79106 17.5539 7.79106H23.1296ZM21.8738 9.48814H17.5539C16.4771 9.48814 15.6039 10.3737 15.6039 11.466C15.6039 12.5583 16.4771 13.4439 17.5539 13.4439H21.8738C22.1052 13.4439 22.2934 13.2526 22.2934 13.0211V9.91086C22.2934 9.67636 22.1052 9.48814 21.8738 9.48814Z" fill="#3A3A3B"/>
</svg>
