<svg width="23" height="21" viewBox="0 0 23 21" fill="none" xmlns="http://www.w3.org/2000/svg">
<path d="M15.9492 11.1493C15.9492 11.3744 16.0373 11.5902 16.1941 11.7493C16.351 11.9085 16.5636 11.9979 16.7854 11.9979C17.0072 11.9979 17.2199 11.9085 17.3767 11.7493C17.5335 11.5902 17.6216 11.3744 17.6216 11.1493C17.6216 10.9243 17.5335 10.7084 17.3767 10.5493C17.2199 10.3902 17.0072 10.3008 16.7854 10.3008C16.5636 10.3008 16.351 10.3902 16.1941 10.5493C16.0373 10.7084 15.9492 10.9243 15.9492 11.1493Z" fill="#2F2F33"/>
<path d="M20.9174 9.25159H16.5976C15.5207 9.25159 14.6475 10.1372 14.6475 11.2295C14.6475 12.3218 15.5207 13.2073 16.5976 13.2073H20.9174C21.1488 13.2073 21.337 13.016 21.337 12.7846V9.67431C21.3339 9.43981 21.1488 9.25159 20.9174 9.25159Z" fill="white"/>
<path d="M8.88672 4.1696L16.7611 1.71655L17.5079 4.39485L8.88672 4.1696Z" fill="#3A3A3B"/>
<path d="M19.2788 4.91023L17.7637 5.32061L16.8195 1.73824L3.52373 5.78654L2.99609 4.26534L17.1034 0.0349933C17.5477 -0.0976871 18.0106 0.158417 18.1433 0.608913C18.1463 0.615084 18.1463 0.624341 18.1494 0.630513L19.2788 4.91023ZM22.1638 7.53813C22.6266 7.53813 23 7.91766 23 8.38667V14.0395C23 14.5085 22.6266 14.888 22.1638 14.888H16.5881C14.5856 14.888 12.9626 13.2434 12.9626 11.2131C12.9626 9.18275 14.5856 7.53813 16.5881 7.53813H22.1638ZM20.908 9.23521H16.5881C15.5113 9.23521 14.638 10.1208 14.638 11.2131C14.638 12.3054 15.5113 13.1909 16.5881 13.1909H20.908C21.1394 13.1909 21.3276 12.9996 21.3276 12.7682V9.65793C21.3276 9.42343 21.1394 9.23521 20.908 9.23521Z" fill="#2F2F33"/>
<path d="M21.3276 9.23625H19.7478V13.1951H21.3276V19.6964C21.3276 20.1654 20.9543 20.5449 20.4914 20.5449H0.836195C0.373357 20.5449 0 20.1654 0 19.6964V4.99356C0 4.52455 0.373357 4.14502 0.836195 4.14502H20.4914C20.9543 4.14502 21.3276 4.52455 21.3276 4.99356V9.23625ZM1.67239 5.84209V18.8479H19.7478V5.84209H1.67239Z" fill="#2F2F33"/>
<path d="M0.836426 5.1355H21.2013V9.12208L21.6889 11.4702L21.2013 13.4357V19.1287H0.836426V5.1355Z" fill="#2F2F33"/>
<path d="M0.836426 5.1355H21.2013V9.12208L21.6889 11.4702L21.2013 13.4357V19.1287H0.836426V5.1355Z" fill="#E53935"/>
<path d="M21.3276 9.23625H19.7478V13.1951H21.3276V19.6964C21.3276 20.1654 20.9543 20.5449 20.4914 20.5449H0.836195C0.373357 20.5449 0 20.1654 0 19.6964V4.99356C0 4.52455 0.373357 4.14502 0.836195 4.14502H20.4914C20.9543 4.14502 21.3276 4.52455 21.3276 4.99356V9.23625ZM1.67239 5.84209V18.8479H19.7478V5.84209H1.67239Z" fill="#2F2F33"/>
<path d="M21.3276 9.23625H19.7478V13.1951H21.3276V19.6964C21.3276 20.1654 20.9543 20.5449 20.4914 20.5449H0.836195C0.373357 20.5449 0 20.1654 0 19.6964V4.99356C0 4.52455 0.373357 4.14502 0.836195 4.14502H20.4914C20.9543 4.14502 21.3276 4.52455 21.3276 4.99356V9.23625ZM1.67239 5.84209V18.8479H19.7478V5.84209H1.67239Z" fill="#2F2F33"/>
<path d="M19.2788 4.91023L17.7637 5.32061L16.8195 1.73824L3.52373 5.78654L2.99609 4.26534L17.1034 0.0349933C17.5477 -0.0976871 18.0106 0.158417 18.1433 0.608913C18.1463 0.615084 18.1463 0.624341 18.1494 0.630513L19.2788 4.91023ZM22.1638 7.53813C22.6266 7.53813 23 7.91766 23 8.38667V14.0395C23 14.5085 22.6266 14.888 22.1638 14.888H16.5881C14.5856 14.888 12.9626 13.2434 12.9626 11.2131C12.9626 9.18275 14.5856 7.53813 16.5881 7.53813H22.1638ZM20.908 9.23521H16.5881C15.5113 9.23521 14.638 10.1208 14.638 11.2131C14.638 12.3054 15.5113 13.1909 16.5881 13.1909H20.908C21.1394 13.1909 21.3276 12.9996 21.3276 12.7682V9.65793C21.3276 9.42343 21.1394 9.23521 20.908 9.23521Z" fill="#2F2F33"/>
<path d="M21.3276 9.23625H19.7478V13.1951H21.3276V19.6964C21.3276 20.1654 20.9543 20.5449 20.4914 20.5449H0.836195C0.373357 20.5449 0 20.1654 0 19.6964V4.99356C0 4.52455 0.373357 4.14502 0.836195 4.14502H20.4914C20.9543 4.14502 21.3276 4.52455 21.3276 4.99356V9.23625ZM1.67239 5.84209V18.8479H19.7478V5.84209H1.67239Z" fill="#2F2F33"/>
<path d="M19.2788 4.91023L17.7637 5.32061L16.8195 1.73824L3.52373 5.78654L2.99609 4.26534L17.1034 0.0349933C17.5477 -0.0976871 18.0106 0.158417 18.1433 0.608913C18.1463 0.615084 18.1463 0.624341 18.1494 0.630513L19.2788 4.91023ZM22.1638 7.53813C22.6266 7.53813 23 7.91766 23 8.38667V14.0395C23 14.5085 22.6266 14.888 22.1638 14.888H16.5881C14.5856 14.888 12.9626 13.2434 12.9626 11.2131C12.9626 9.18275 14.5856 7.53813 16.5881 7.53813H22.1638ZM20.908 9.23521H16.5881C15.5113 9.23521 14.638 10.1208 14.638 11.2131C14.638 12.3054 15.5113 13.1909 16.5881 13.1909H20.908C21.1394 13.1909 21.3276 12.9996 21.3276 12.7682V9.65793C21.3276 9.42343 21.1394 9.23521 20.908 9.23521Z" fill="#2F2F33"/>
<path d="M19.2788 4.91023L17.7637 5.32061L16.8195 1.73824L3.52373 5.78654L2.99609 4.26534L17.1034 0.0349933C17.5477 -0.0976871 18.0106 0.158417 18.1433 0.608913C18.1463 0.615084 18.1463 0.624341 18.1494 0.630513L19.2788 4.91023ZM22.1638 7.53813C22.6266 7.53813 23 7.91766 23 8.38667V14.0395C23 14.5085 22.6266 14.888 22.1638 14.888H16.5881C14.5856 14.888 12.9626 13.2434 12.9626 11.2131C12.9626 9.18275 14.5856 7.53813 16.5881 7.53813H22.1638ZM20.908 9.23521H16.5881C15.5113 9.23521 14.638 10.1208 14.638 11.2131C14.638 12.3054 15.5113 13.1909 16.5881 13.1909H20.908C21.1394 13.1909 21.3276 12.9996 21.3276 12.7682V9.65793C21.3276 9.42343 21.1394 9.23521 20.908 9.23521Z" fill="#2F2F33"/>
<line x1="4.03418" y1="11.2471" x2="11.0342" y2="11.2471" stroke="#C5C6C7"/>
<path d="M21.3276 9.23625H19.7478V13.1951H21.3276V19.6964C21.3276 20.1654 20.9543 20.5449 20.4914 20.5449H0.836195C0.373357 20.5449 0 20.1654 0 19.6964V4.99356C0 4.52455 0.373357 4.14502 0.836195 4.14502H20.4914C20.9543 4.14502 21.3276 4.52455 21.3276 4.99356V9.23625ZM1.67239 5.84209V18.8479H19.7478V5.84209H1.67239Z" fill="#3A3A3B"/>
<path d="M19.2788 4.91023L17.7637 5.32061L16.8195 1.73824L3.52373 5.78654L2.99609 4.26534L17.1034 0.0349933C17.5477 -0.0976871 18.0106 0.158417 18.1433 0.608913C18.1463 0.615084 18.1463 0.624341 18.1494 0.630513L19.2788 4.91023ZM22.1638 7.53813C22.6266 7.53813 23 7.91766 23 8.38667V14.0395C23 14.5085 22.6266 14.888 22.1638 14.888H16.5881C14.5856 14.888 12.9626 13.2434 12.9626 11.2131C12.9626 9.18275 14.5856 7.53813 16.5881 7.53813H22.1638ZM20.908 9.23521H16.5881C15.5113 9.23521 14.638 10.1208 14.638 11.2131C14.638 12.3054 15.5113 13.1909 16.5881 13.1909H20.908C21.1394 13.1909 21.3276 12.9996 21.3276 12.7682V9.65793C21.3276 9.42343 21.1394 9.23521 20.908 9.23521Z" fill="#3A3A3B"/>
</svg>
